<?xml version="1.0" encoding="UTF-8" standalone="no"?>
<svg
   xmlns:osb="http://www.openswatchbook.org/uri/2009/osb"
   xmlns:dc="http://purl.org/dc/elements/1.1/"
   xmlns:cc="http://creativecommons.org/ns#"
   xmlns:rdf="http://www.w3.org/1999/02/22-rdf-syntax-ns#"
   xmlns:svg="http://www.w3.org/2000/svg"
   xmlns="http://www.w3.org/2000/svg"
   xmlns:xlink="http://www.w3.org/1999/xlink"
   xmlns:sodipodi="http://sodipodi.sourceforge.net/DTD/sodipodi-0.dtd"
   xmlns:inkscape="http://www.inkscape.org/namespaces/inkscape"
   viewBox="0 0 348 348"
   fill="none"
   stroke-linecap="square"
   stroke-miterlimit="10"
   version="1.1"
   id="svg915"
   sodipodi:docname="needyWingdings.svg"
   inkscape:version="0.92.4 (5da689c313, 2019-01-14)">
  <metadata
     id="metadata921">
    <rdf:RDF>
      <cc:Work
         rdf:about="">
        <dc:format>image/svg+xml</dc:format>
        <dc:type
           rdf:resource="http://purl.org/dc/dcmitype/StillImage" />
      </cc:Work>
    </rdf:RDF>
  </metadata>
  <defs
     id="defs919">
    <linearGradient
       id="linearGradient927"
       osb:paint="solid">
      <stop
         style="stop-color:#000000;stop-opacity:1;"
         offset="0"
         id="stop925" />
    </linearGradient>
    <radialGradient
       inkscape:collect="always"
       xlink:href="#linearGradient927"
       id="radialGradient933"
       cx="172.08791"
       cy="166.35165"
       fx="172.08791"
       fy="166.35165"
       r="71.724319"
       gradientTransform="matrix(1,0,0,0.68857069,2.5494505,46.707879)"
       gradientUnits="userSpaceOnUse" />
    <radialGradient
       inkscape:collect="always"
       xlink:href="#linearGradient927"
       id="radialGradient933-4"
       cx="172.08791"
       cy="166.35165"
       fx="172.08791"
       fy="166.35165"
       r="71.724319"
       gradientTransform="matrix(0.68537725,0,0,0.40934696,57.632364,224.84992)"
       gradientUnits="userSpaceOnUse" />
  </defs>
  <sodipodi:namedview
     pagecolor="#ffffff"
     bordercolor="#666666"
     borderopacity="1"
     objecttolerance="10"
     gridtolerance="10"
     guidetolerance="10"
     inkscape:pageopacity="0"
     inkscape:pageshadow="2"
     inkscape:window-width="1366"
     inkscape:window-height="715"
     id="namedview917"
     showgrid="false"
     inkscape:zoom="1.5689655"
     inkscape:cx="174"
     inkscape:cy="174"
     inkscape:window-x="-8"
     inkscape:window-y="-8"
     inkscape:window-maximized="1"
     inkscape:current-layer="svg915" />
  <path
     d="M5.079 5.776h336.913v337.67H5.08z"
     stroke="#000"
     stroke-width="2"
     stroke-linecap="butt"
     stroke-linejoin="round"
     id="path875" />
  <path
     d="M133.843 15.667h74.33v56.882h-74.33z"
     fill="#000"
     id="path877" />
  <path
     d="M154.54 44.09c0-2.709.276-4.886.827-6.531.563-1.657 1.391-2.933 2.485-3.829 1.104-.895 2.49-1.343 4.156-1.343 1.23 0 2.307.25 3.234.75.927.49 1.692 1.203 2.297 2.14.604.927 1.078 2.062 1.422 3.407.344 1.333.516 3.135.516 5.406 0 2.687-.276 4.859-.829 6.515-.552 1.647-1.38 2.923-2.484 3.829-1.093.895-2.479 1.343-4.156 1.343-2.209 0-3.943-.792-5.203-2.375-1.51-1.907-2.266-5.01-2.266-9.312zm2.89 0c0 3.76.437 6.265 1.312 7.515.885 1.24 1.974 1.86 3.266 1.86 1.291 0 2.375-.625 3.25-1.875.885-1.25 1.328-3.75 1.328-7.5 0-3.77-.443-6.276-1.328-7.516-.875-1.24-1.969-1.86-3.281-1.86-1.292 0-2.323.547-3.094 1.641-.969 1.396-1.453 3.974-1.453 7.735zm14.906 0c0-2.709.276-4.886.828-6.531.563-1.657 1.39-2.933 2.484-3.829 1.105-.895 2.49-1.343 4.157-1.343 1.229 0 2.307.25 3.234.75.927.49 1.692 1.203 2.297 2.14.604.927 1.078 2.062 1.422 3.407.343 1.333.515 3.135.515 5.406 0 2.687-.276 4.859-.828 6.515-.552 1.647-1.38 2.923-2.484 3.829-1.093.895-2.479 1.343-4.156 1.343-2.209 0-3.943-.792-5.203-2.375-1.51-1.907-2.266-5.01-2.266-9.312zm2.89 0c0 3.76.438 6.265 1.313 7.515.885 1.24 1.974 1.86 3.266 1.86 1.291 0 2.375-.625 3.25-1.875.885-1.25 1.328-3.75 1.328-7.5 0-3.77-.443-6.276-1.328-7.516-.875-1.24-1.97-1.86-3.282-1.86-1.291 0-2.322.547-3.093 1.641-.969 1.396-1.453 3.974-1.453 7.735z"
     fill="#fff"
     id="path879" />
  <path
     d="M15.262 17.706h109.89v54.835H15.262z"
     stroke="#000"
     stroke-width="2"
     stroke-linecap="butt"
     stroke-linejoin="round"
     id="path881" />
  <path
     d="M15.262 72.654l39.686-54.08"
     id="path883" />
  <path
     d="M15.262 72.654l39.686-54.08"
     stroke="#000"
     stroke-width="2"
     stroke-linecap="butt"
     stroke-linejoin="round"
     id="path885" />
  <path
     d="M37.566 72.654l39.686-54.08"
     id="path887" />
  <path
     d="M37.566 72.654l39.686-54.08"
     stroke="#000"
     stroke-width="2"
     stroke-linecap="butt"
     stroke-linejoin="round"
     id="path889" />
  <path
     d="M59.87 72.654l39.686-54.08"
     id="path891" />
  <path
     d="M59.87 72.654l39.686-54.08"
     stroke="#000"
     stroke-width="2"
     stroke-linecap="butt"
     stroke-linejoin="round"
     id="path893" />
  <path
     d="M82.175 72.654l39.685-54.08"
     id="path895" />
  <path
     d="M82.175 72.654l39.685-54.08M216.864 16.634h109.89v54.835h-109.89z"
     stroke="#000"
     stroke-width="2"
     stroke-linecap="butt"
     stroke-linejoin="round"
     id="path897" />
  <path
     d="M216.864 71.581l39.685-54.078"
     id="path899" />
  <path
     d="M216.864 71.581l39.685-54.078"
     stroke="#000"
     stroke-width="2"
     stroke-linecap="butt"
     stroke-linejoin="round"
     id="path901" />
  <path
     d="M239.168 71.581l39.685-54.078"
     id="path903" />
  <path
     d="M239.168 71.581l39.685-54.078"
     stroke="#000"
     stroke-width="2"
     stroke-linecap="butt"
     stroke-linejoin="round"
     id="path905" />
  <path
     d="M261.472 71.581l39.685-54.078"
     id="path907" />
  <path
     d="M261.472 71.581l39.685-54.078"
     stroke="#000"
     stroke-width="2"
     stroke-linecap="butt"
     stroke-linejoin="round"
     id="path909" />
  <path
     d="M283.776 71.581l39.685-54.078"
     id="path911" />
  <path
     d="M283.776 71.581l39.685-54.078"
     stroke="#000"
     stroke-width="2"
     stroke-linecap="butt"
     stroke-linejoin="round"
     id="path913" />
  <rect
     style="fill:#ffffff;fill-opacity:1;stroke:url(#radialGradient933);stroke-width:1.74236214;stroke-miterlimit:4;stroke-dasharray:none;stroke-opacity:1"
     id="rect923"
     width="203.38809"
     height="98.164528"
     x="70.712547"
     y="112.17049" />
  <rect
     y="263.76669"
     x="104.34979"
     height="58.357628"
     width="139.39755"
     id="rect935-5"
     style="fill:#ffffff;fill-opacity:1;stroke:url(#radialGradient933-4);stroke-width:1.11217916;stroke-miterlimit:4;stroke-dasharray:none;stroke-opacity:1" />
  <path
     style="fill:none;stroke:#000000;stroke-width:1px;stroke-linecap:butt;stroke-linejoin:miter;stroke-opacity:1"
     d="M 77.758241,266.41758 17.208791,295.0989 76.483516,322.5055 57.362638,294.46154 Z"
     id="path961"
     inkscape:connector-curvature="0"
     sodipodi:nodetypes="ccccc" />
  <path
     style="fill:none;stroke:#000000;stroke-width:1px;stroke-linecap:butt;stroke-linejoin:miter;stroke-opacity:1"
     d="m 264.37555,264.54434 60.54945,28.68132 -59.27472,27.4066 19.12088,-28.04396 z"
     id="path961-5"
     inkscape:connector-curvature="0"
     sodipodi:nodetypes="ccccc" />
</svg>
